<svg width="18" height="19" viewBox="0 0 18 19" fill="none" xmlns="http://www.w3.org/2000/svg">
<rect width="18" height="19" fill="black"/>
<g clip-path="url(#clip0_181_690)">
<path d="M16 9C16 7.05 15.3207 5.396 13.962 4.038C12.6033 2.68 10.9493 2.00067 9 2V0C10.25 0 11.421 0.237667 12.513 0.713C13.605 1.18833 14.555 1.83 15.363 2.638C16.171 3.446 16.8127 4.396 17.288 5.488C17.7633 6.58 18.0007 7.75067 18 9H16ZM12 9C12 8.16667 11.7083 7.45833 11.125 6.875C10.5417 6.29167 9.83333 6 9 6V4C10.3833 4 11.5627 4.48767 12.538 5.463C13.5133 6.43833 14.0007 7.61733 14 9H12ZM16.95 18.05C14.8 18.05 12.704 17.5707 10.662 16.612C8.62 15.6533 6.81167 14.3867 5.237 12.812C3.66233 11.2373 2.39567 9.429 1.437 7.387C0.478334 5.345 -0.000665972 3.24933 6.94928e-07 1.1C6.94928e-07 0.8 0.100001 0.55 0.300001 0.35C0.500001 0.15 0.750001 0.05 1.05 0.05H5.1C5.33333 0.05 5.54167 0.125 5.725 0.275C5.90833 0.425 6.01667 0.616667 6.05 0.85L6.7 4.35C6.73333 4.58333 6.729 4.796 6.687 4.988C6.645 5.18 6.54933 5.35067 6.4 5.5L4 7.95C4.7 9.15 5.575 10.275 6.625 11.325C7.675 12.375 8.83333 13.2833 10.1 14.05L12.45 11.7C12.6 11.55 12.796 11.4377 13.038 11.363C13.28 11.2883 13.5173 11.2673 13.75 11.3L17.2 12C17.4333 12.05 17.625 12.1627 17.775 12.338C17.925 12.5133 18 12.7173 18 12.95V17C18 17.3 17.9 17.55 17.7 17.75C17.5 17.95 17.25 18.05 16.95 18.05Z" fill="#C1AB9F"/>
</g>
<defs>
<clipPath id="clip0_181_690">
<rect width="18" height="19" fill="white"/>
</clipPath>
</defs>
</svg>
